<svg xmlns="http://www.w3.org/2000/svg" width="150" height="80" viewBox="0 0 150 80" xmlns:xlink="http://www.w3.org/1999/xlink"><defs><path id="a" d="M0 81.487h131.128V0H0z"/></defs><g fill="none" fill-rule="evenodd" transform="translate(9 -1)"><path fill="#FFF" d="M2.658 30.658c.93 0 1.51-.52 1.51-1.249v-.02c0-.82-.59-1.25-1.51-1.25H1.23v2.52h1.43zM0 27.02h2.76c1.627 0 2.657.93 2.657 2.34v.02c0 1.568-1.259 2.387-2.799 2.387H1.23v2.25H0V27.02zm7.18.001h1.229v2.908h3.338v-2.908h1.23v6.996h-1.23v-2.948H8.409v2.948H7.18zm12.337 4.217l-1.21-2.799-1.198 2.8h2.408zm-1.76-4.268h1.14l3.079 7.046h-1.3l-.71-1.689H16.66l-.72 1.69h-1.26l3.079-7.047zm5.923.051h1.14l3.748 4.837v-4.837h1.209v6.996h-1.03l-3.858-4.977v4.977H23.68zm10.119 1.139H31.58v-1.14h5.677v1.14h-2.219v5.856h-1.239zm10.598 2.378v-.02c0-1.359-.99-2.488-2.38-2.488-1.389 0-2.358 1.11-2.358 2.468v.02c0 1.36.99 2.49 2.38 2.49 1.387 0 2.358-1.11 2.358-2.47m-6.026 0v-.02c0-1.968 1.517-3.618 3.667-3.618 2.149 0 3.648 1.63 3.648 3.598v.02c0 1.97-1.519 3.62-3.669 3.62-2.148 0-3.647-1.63-3.647-3.6m9.31-3.517h1.31l2.128 3.309 2.129-3.309h1.309v6.996h-1.229V29l-2.209 3.298h-.04l-2.189-3.278v4.997H47.68zM22.65 45.327c.22.04.54.05.88.05 1.857 0 2.867-1.039 2.867-2.859.01-1.588-.89-2.598-2.728-2.598-.45 0-.79.04-1.02.09v5.317zm-.87-5.957c.53-.08 1.16-.14 1.848-.14 1.25 0 2.14.29 2.73.84.6.55.948 1.33.948 2.418 0 1.1-.34 2-.969 2.62-.629.628-1.668.968-2.978.968-.62 0-1.14-.029-1.579-.079V39.37zm10.649 3.488H29.81v2.43h2.919v.729h-3.788v-6.736h3.637v.729H29.81v2.129h2.619zm1.811 2.099c.39.24.96.44 1.56.44.888 0 1.41-.47 1.41-1.149 0-.63-.362-.99-1.27-1.34-1.1-.389-1.78-.959-1.78-1.909 0-1.049.87-1.829 2.18-1.829.688 0 1.188.16 1.488.33l-.239.71c-.22-.12-.67-.32-1.28-.32-.92 0-1.269.55-1.269 1.01 0 .63.41.94 1.34 1.298 1.138.441 1.717.99 1.717 1.98 0 1.04-.769 1.938-2.358 1.938-.649 0-1.359-.189-1.719-.43l.22-.729z"/><mask id="b" fill="#fff"><use xlink:href="#a"/></mask><path fill="#FFF" mask="url(#b)" d="M39.79 46.017h.869v-6.736h-.869zm8.017-.3a6.27 6.27 0 0 1-2.068.37c-1.02 0-1.86-.26-2.52-.89-.58-.56-.94-1.46-.94-2.508.01-2.01 1.39-3.48 3.649-3.48.779 0 1.39.17 1.679.312l-.21.709c-.36-.16-.81-.29-1.488-.29-1.64 0-2.71 1.019-2.71 2.709 0 1.709 1.03 2.718 2.599 2.718.57 0 .959-.08 1.159-.18v-2.01h-1.37v-.698h2.22v3.238zm1.833.3V39.28h.949l2.159 3.408c.499.789.89 1.499 1.209 2.188l.02-.01c-.08-.9-.1-1.718-.1-2.768V39.28h.82v6.736h-.88l-2.138-3.418c-.47-.75-.92-1.52-1.26-2.25l-.03.01c.05.85.07 1.66.07 2.78v2.878h-.82z"/><path stroke="#FFF100" d="M130.753 40.639c0 16.953-13.743 30.696-30.696 30.696-16.953 0-30.696-13.743-30.696-30.696 0-16.953 13.743-30.696 30.696-30.696 16.953 0 30.696 13.743 30.696 30.696z" mask="url(#b)"/><path stroke="#06C4CA" stroke-width="3" d="M100.057 76.335c-19.714 0-35.696-15.982-35.696-35.696S80.343 4.943 100.057 4.943" mask="url(#b)"/><path fill="#FFF" stroke="#535353" stroke-width=".25" d="M98.45 40.437v-9.71l12.114 5.41v9.716L98.45 40.437zm12.114-22.656v14.48l-15.66-6.77V42.92l19.351 8.427v-32.08l-3.69-1.485z" mask="url(#b)"/><path fill="#06C4CA" d="M102.888 39.843v9.71l-12.114-5.41v-9.716l12.114 5.416zM90.774 62.5V48.02l15.66 6.77V37.36l-19.351-8.427v32.08l3.69 1.485z" mask="url(#b)"/></g></svg>